<?xml version="1.0" encoding="UTF-8"?>
<svg width="40" height="40" viewBox="0 0 24 24" fill="none" xmlns="http://www.w3.org/2000/svg">
  <path d="M12 22C17.5228 22 22 17.5228 22 12C22 6.47715 17.5228 2 12 2C6.47715 2 2 6.47715 2 12C2 17.5228 6.47715 22 12 22Z" fill="#3B82F6"/>
  <path d="M14.5 8H9.5C8.67157 8 8 8.67157 8 9.5V14.5C8 15.3284 8.67157 16 9.5 16H14.5C15.3284 16 16 15.3284 16 14.5V9.5C16 8.67157 15.3284 8 14.5 8Z" stroke="white" stroke-width="1.5" stroke-linecap="round" stroke-linejoin="round"/>
  <path d="M8 10H16" stroke="white" stroke-width="1.5" stroke-linecap="round" stroke-linejoin="round"/>
  <path d="M10 8V16" stroke="white" stroke-width="1.5" stroke-linecap="round" stroke-linejoin="round"/>
</svg>
